<svg xmlns="http://www.w3.org/2000/svg" width="94.038" height="66.935" viewBox="0 0 94.038 66.935">
  <g id="Group_131" data-name="Group 131" transform="translate(-1008.374 -472.878)">
    <g id="Group_130" data-name="Group 130" transform="translate(1008.374 472.878)">
      <path id="Path_144" data-name="Path 144" d="M1053.945,493.031,1034,476.481a15.645,15.645,0,0,0-22.028,2.055h0a15.644,15.644,0,0,0,2.055,22.028l19.941,16.55Z" transform="translate(-1008.374 -472.879)" fill="#333"/>
      <g id="Path_145" data-name="Path 145" transform="translate(-1023.907 -472.879)" fill="#fff" stroke-miterlimit="10">
        <path d="M 1092.6748046875 513.5929565429688 L 1075.893676757812 493.3582458496094 L 1093.911743164062 478.4043579101562 C 1096.264404296875 476.4533081054688 1099.240966796875 475.3785095214844 1102.292236328125 475.3785095214844 C 1106.222045898438 475.3785095214844 1109.912719726562 477.1110229492188 1112.418212890625 480.1318664550781 C 1114.659423828125 482.8342590332031 1115.714111328125 486.2477416992188 1115.387939453125 489.743408203125 C 1115.061767578125 493.2390747070312 1113.393798828125 496.3984985351562 1110.691284179688 498.6397094726562 L 1092.6748046875 513.5929565429688 Z" stroke="none"/>
        <path d="M 1102.292236328125 477.8784790039062 C 1099.78662109375 477.8784790039062 1097.440307617188 478.7259521484375 1095.508422851562 480.328125 L 1079.413330078125 493.6860046386719 L 1093.002563476562 510.0719604492188 L 1109.095458984375 496.7153625488281 C 1111.283935546875 494.9004516601562 1112.634643554688 492.3419189453125 1112.898681640625 489.5111694335938 C 1113.162841796875 486.6803894042969 1112.308715820312 483.9161376953125 1110.494018554688 481.7278442382812 C 1108.464965820312 479.2815246582031 1105.4755859375 477.8784790039062 1102.292236328125 477.8784790039062 M 1102.292236328125 472.8784790039062 C 1106.78759765625 472.8784790039062 1111.24853515625 474.8054809570312 1114.342529296875 478.5358581542969 C 1119.85791015625 485.1864318847656 1118.937744140625 495.0486755371094 1112.287231445312 500.5640563964844 L 1092.346923828125 517.1139526367188 L 1072.3740234375 493.030517578125 L 1092.315185546875 476.4805908203125 C 1095.234619140625 474.0595092773438 1098.774169921875 472.8784790039062 1102.292236328125 472.8784790039062 Z" stroke="none" fill="#333"/>
      </g>
    </g>
    <circle id="Ellipse_126" data-name="Ellipse 126" cx="3.394" cy="3.394" r="3.394" transform="translate(1050.649 507.049)" fill="#fff" stroke="#333" stroke-miterlimit="10" stroke-width="5"/>
    <circle id="Ellipse_127" data-name="Ellipse 127" cx="3.394" cy="3.394" r="3.394" transform="translate(1046.106 522.195)" fill="#fff" stroke="#333" stroke-miterlimit="10" stroke-width="5"/>
    <circle id="Ellipse_128" data-name="Ellipse 128" cx="3.394" cy="3.394" r="3.394" transform="translate(1058.222 530.525)" fill="#fff" stroke="#333" stroke-miterlimit="10" stroke-width="5"/>
  </g>
</svg>
