<svg xmlns="http://www.w3.org/2000/svg" width="101.903" height="78.356" viewBox="0 0 101.903 78.356">
  <g id="Group_127" data-name="Group 127" transform="translate(-892.001 -156.072)">
    <path id="Path_140" data-name="Path 140" d="M961.319,187.04V213.3a.952.952,0,0,1-.51.848c-2.555,1.334-14.39,7.1-28.146,7.1-12.3,0-28.687-6.652-35.016-9.438A4.419,4.419,0,0,1,895,207.658c.147-6.6,1.324-22.847,9-33.087,8.6-11.47,15.95-14.78,17.645-15.426a.949.949,0,0,1,.712.017l10.536,4.515a.96.96,0,0,1,.582.883V168.7a.96.96,0,0,0,.96.96h0c.706,0,1.172,3.458.869,4.094-1.452,3.042-2.647,7.369-8.378,7.369h-8.865a.96.96,0,0,0-.96.96v11.6a.957.957,0,0,0,1.542.761,17.333,17.333,0,0,1,10.739-3.5,11.7,11.7,0,0,1,6.57,1.833.955.955,0,0,0,1.345-.263c1.734-2.69,7.4-10.577,14.191-10.577,7.217,0,9.345,3.818,9.748,4.722A.922.922,0,0,1,961.319,187.04Z" fill="none" stroke="#333" stroke-miterlimit="10" stroke-width="6"/>
    <g id="Path_141" data-name="Path 141" transform="translate(-11.113 -3.489)" fill="#333" stroke-miterlimit="10">
      <path d="M 986.677490234375 235.4170837402344 L 984.177490234375 235.4170837402344 L 967.96875 235.4170837402344 L 965.46875 235.4170837402344 L 965.46875 232.9170837402344 L 965.46875 211.3990631103516 L 956.3155517578125 211.3990631103516 L 951.7225341796875 211.3990631103516 L 954.216064453125 207.5418395996094 L 973.9737548828125 176.9783477783203 L 976.0732421875 173.7305755615234 L 978.1727294921875 176.9783477783203 L 997.930419921875 207.5418395996094 L 1000.423950195312 211.3990631103516 L 995.8309326171875 211.3990631103516 L 986.677490234375 211.3990631103516 L 986.677490234375 232.9170837402344 L 986.677490234375 235.4170837402344 Z" stroke="none"/>
      <path d="M 984.177490234375 232.9170989990234 L 984.177490234375 208.8990783691406 L 995.8309326171875 208.8990783691406 L 976.0732421875 178.3355560302734 L 956.3155517578125 208.8990783691406 L 967.96875 208.8990783691406 L 967.96875 232.9170989990234 L 984.177490234375 232.9170989990234 M 989.177490234375 237.9170989990234 L 984.177490234375 237.9170989990234 L 967.96875 237.9170989990234 L 962.96875 237.9170989990234 L 962.96875 232.9170989990234 L 962.96875 213.8990783691406 L 956.3155517578125 213.8990783691406 L 947.1295776367188 213.8990783691406 L 952.1165161132812 206.1846313476562 L 971.8742065429688 175.6211090087891 L 976.0732421875 169.1255798339844 L 980.2722778320312 175.6211090087891 L 1000.029968261719 206.1846313476562 L 1005.016967773438 213.8990783691406 L 995.8309326171875 213.8990783691406 L 989.177490234375 213.8990783691406 L 989.177490234375 232.9170989990234 L 989.177490234375 237.9170989990234 Z" stroke="none" fill="#fff"/>
    </g>
    <path id="Path_142" data-name="Path 142" d="M918.5,204.688s6.378-8.187,14.579-8.187,13.668,6.55,13.668,6.55" transform="translate(-4.259 -6.782)" fill="#fff" stroke="#333" stroke-linecap="round" stroke-miterlimit="10" stroke-width="5"/>
  </g>
</svg>
