<svg xmlns="http://www.w3.org/2000/svg" width="57.919" height="74.042" viewBox="0 0 57.919 74.042">
  <g id="Group_126" data-name="Group 126" transform="translate(-443 -154.911)">
    <path id="Path_138" data-name="Path 138" d="M470.67,158.888a1.692,1.692,0,0,0-2.971-.01L453.618,184.5c-3.351,6.1-7.618,12.011-7.618,19.237,0,12.269,10.306,22.215,23.018,22.215s23.018-9.946,23.018-22.216a23.44,23.44,0,0,0-1.649-8.3c-2.089-5.541-5.747-10.7-8.474-15.748Z" fill="none" stroke="#333" stroke-miterlimit="10" stroke-width="6"/>
    <g id="Path_139" data-name="Path 139" transform="translate(-9.846 0)" fill="#333" stroke-linecap="square" stroke-linejoin="bevel">
      <path d="M 482.2477722167969 219.4436187744141 L 477.9345703125 217.0555877685547 L 485.93896484375 194.3062591552734 L 477.3952026367188 194.3062591552734 L 472.2515563964844 194.3062591552734 L 475.4294128417969 190.26171875 L 501.9914245605469 156.4554595947266 L 506.3067016601562 158.8543701171875 L 497.8675231933594 182.0620574951172 L 506.8549194335938 182.0620574951172 L 512.0447387695312 182.0620574951172 L 508.8098449707031 186.1203308105469 L 482.2477722167969 219.4436187744141 Z" stroke="none"/>
      <path d="M 503.9572143554688 158 L 477.3952026367188 191.8062591552734 L 489.4688110351562 191.8062591552734 L 480.2928466796875 217.8853454589844 L 506.8549194335938 184.5620574951172 L 494.2982788085938 184.5620574951172 L 503.9572143554688 158 M 500.0256042480469 154.9109039306641 L 508.6561584472656 159.7087097167969 L 501.436767578125 179.5620574951172 L 506.8549194335938 179.5620574951172 L 510.7648010253906 187.6786193847656 L 484.2026977539062 221.0019073486328 L 475.5762939453125 216.225830078125 L 482.4090881347656 196.8062591552734 L 477.3952026367188 196.8062591552734 L 473.4635925292969 188.7171630859375 L 500.0256042480469 154.9109039306641 Z" stroke="none" fill="#fff"/>
    </g>
  </g>
</svg>
