<svg xmlns="http://www.w3.org/2000/svg" width="89.48" height="90.012" viewBox="0 0 89.48 90.012">
  <g id="Group_140" data-name="Group 140" transform="matrix(0.839, 0.545, -0.545, 0.839, -123.486, -638.815)">
    <g id="Group_137" data-name="Group 137" transform="translate(493.487 429.704)">
      <g id="Group_135" data-name="Group 135" transform="translate(24.992)">
        <path id="Path_149" data-name="Path 149" d="M530.77,440.438a1.709,1.709,0,0,1-1.709-1.709v-7.317a1.709,1.709,0,0,1,3.418,0v7.317A1.709,1.709,0,0,1,530.77,440.438Z" transform="translate(-529.061 -429.704)" fill="#333"/>
        <path id="Path_150" data-name="Path 150" d="M542.931,444.941a1.709,1.709,0,0,1-1.386-2.707l4.272-5.94a1.709,1.709,0,0,1,2.775,2l-4.272,5.94A1.708,1.708,0,0,1,542.931,444.941Z" transform="translate(-532.679 -431.453)" fill="#333"/>
        <path id="Path_151" data-name="Path 151" d="M550.516,456.755a1.709,1.709,0,0,1-.544-3.329l6.935-2.327A1.709,1.709,0,1,1,558,454.338l-6.936,2.327A1.705,1.705,0,0,1,550.516,456.755Z" transform="translate(-534.935 -436.041)" fill="#333"/>
      </g>
      <g id="Group_136" data-name="Group 136" transform="translate(0 14.328)">
        <g id="Rectangle_65" data-name="Rectangle 65" transform="translate(0.442 8.453)" fill="none" stroke="#fff" stroke-miterlimit="10" stroke-width="7">
          <rect width="31.794" height="63.588" rx="4.745" stroke="none"/>
          <rect x="-3.5" y="-3.5" width="38.794" height="70.588" rx="8.245" fill="none"/>
        </g>
        <rect id="Rectangle_66" data-name="Rectangle 66" width="31.794" height="63.588" rx="5.091" transform="translate(0.442 8.453)" fill="#fff" stroke="#333" stroke-miterlimit="10" stroke-width="5"/>
        <rect id="Rectangle_67" data-name="Rectangle 67" width="32.677" height="49.458" transform="translate(0 20.818)" fill="#333"/>
        <rect id="Rectangle_68" data-name="Rectangle 68" width="17.663" height="7.57" transform="translate(7.507)" fill="#333"/>
      </g>
    </g>
    <g id="Group_138" data-name="Group 138" transform="translate(504.61 470.3)">
      <path id="Path_152" data-name="Path 152" d="M513.154,494.938H509.32v-3.66h3.834v-3.791h3.79v3.791h3.834v3.66h-3.834v3.79h-3.79Z" transform="translate(-509.32 -487.488)" fill="#fff"/>
    </g>
    <g id="Group_139" data-name="Group 139" transform="translate(504.128 506.904)">
      <path id="Path_153" data-name="Path 153" d="M508.634,539.591h11.442v2.927H508.634Z" transform="translate(-508.634 -539.591)" fill="#fff"/>
    </g>
  </g>
</svg>
