<svg xmlns="http://www.w3.org/2000/svg" width="44.168" height="96.467" viewBox="0 0 44.168 96.467">
  <g id="Group_32" data-name="Group 32" transform="translate(2 2)" opacity="0.999">
    <g id="Group_3" data-name="Group 3" transform="translate(0 11.297)">
      <path id="Path_3" data-name="Path 3" d="M5325,802.854h11.3c8.788,0,8.788-8.786,8.788-8.786v-47.7c0-6.695-5.44-12.552-7.532-15.9a35.1,35.1,0,0,1-3.347-8.786" transform="translate(-5304.914 -721.684)" fill="none" stroke="#2f2f2f" stroke-miterlimit="10" stroke-width="4"/>
      <path id="Path_4" data-name="Path 4" d="M5312.875,721.684a35.117,35.117,0,0,1-3.347,8.786c-2.093,3.348-7.53,9.205-7.53,15.9v47.7s0,8.786,8.786,8.786h11.3" transform="translate(-5301.998 -721.684)" fill="none" stroke="#2f2f2f" stroke-miterlimit="10" stroke-width="4"/>
    </g>
    <path id="Path_5" data-name="Path 5" d="M5323.6,720.043h-9.624v-7.424a3.028,3.028,0,0,1,2.058-2.888,29.541,29.541,0,0,1,15.131,0,3.03,3.03,0,0,1,2.059,2.888v7.424Z" transform="translate(-5303.517 -708.746)" fill="none" stroke="#2f2f2f" stroke-miterlimit="10" stroke-width="4"/>
    <path id="Path_6" data-name="Path 6" d="M5302,763.117s3.255,6.357,10.041,6.357c13,0,14.772-7.78,30.126-7.78" transform="translate(-5301.998 -715.46)" fill="none" stroke="#2f2f2f" stroke-miterlimit="10" stroke-width="4"/>
  </g>
</svg>
