<svg xmlns="http://www.w3.org/2000/svg" width="50.85" height="111.85" viewBox="0 0 50.85 111.85">
  <g id="Group_33" data-name="Group 33" transform="translate(2 2)">
    <g id="Group_3" data-name="Group 3" transform="translate(0 13.177)">
      <path id="Path_3" data-name="Path 3" d="M5325,816.357h13.175c10.25,0,10.25-10.248,10.25-10.248V750.477c0-7.809-6.345-14.64-8.785-18.545s-3.9-10.248-3.9-10.248" transform="translate(-5301.573 -721.684)" fill="none" stroke="#2f2f2f" stroke-miterlimit="10" stroke-width="4"/>
      <path id="Path_4" data-name="Path 4" d="M5314.685,721.684s-1.463,6.344-3.9,10.248S5302,742.668,5302,750.477V806.11s0,10.248,10.246,10.248h13.177" transform="translate(-5301.998 -721.684)" fill="none" stroke="#2f2f2f" stroke-miterlimit="10" stroke-width="4"/>
    </g>
    <path id="Path_5" data-name="Path 5" d="M5325.2,721.923h-11.225v-8.659a3.53,3.53,0,0,1,2.4-3.369,34.458,34.458,0,0,1,17.648,0,3.533,3.533,0,0,1,2.4,3.369v8.659Z" transform="translate(-5301.777 -708.746)" fill="none" stroke="#2f2f2f" stroke-miterlimit="10" stroke-width="4"/>
    <path id="Path_6" data-name="Path 6" d="M5302,763.354s3.8,7.414,11.711,7.414c15.167,0,17.229-9.075,35.136-9.075" transform="translate(-5301.998 -707.769)" fill="none" stroke="#2f2f2f" stroke-miterlimit="10" stroke-width="4"/>
  </g>
</svg>
