<svg xmlns="http://www.w3.org/2000/svg" width="37.091" height="80.18" viewBox="0 0 37.091 80.18">
  <g id="Group_31" data-name="Group 31" transform="translate(2 2)">
    <g id="Group_3" data-name="Group 3" transform="translate(0 9.307)">
      <path id="Path_3" data-name="Path 3" d="M5325,788.556h9.306c7.24,0,7.24-7.238,7.24-7.238v-39.3c0-5.516-4.481-10.341-6.2-13.1a28.9,28.9,0,0,1-2.759-7.238" transform="translate(-5308.453 -721.684)" fill="none" stroke="#2f2f2f" stroke-miterlimit="10" stroke-width="4"/>
      <path id="Path_4" data-name="Path 4" d="M5310.958,721.684a28.9,28.9,0,0,1-2.757,7.238c-1.724,2.758-6.205,7.584-6.205,13.1v39.3s0,7.238,7.238,7.238h9.308" transform="translate(-5301.997 -721.684)" fill="none" stroke="#2f2f2f" stroke-miterlimit="10" stroke-width="4"/>
    </g>
    <path id="Path_5" data-name="Path 5" d="M5321.905,718.053h-7.929v-6.116a2.494,2.494,0,0,1,1.7-2.38,24.34,24.34,0,0,1,12.466,0,2.5,2.5,0,0,1,1.7,2.38v6.116Z" transform="translate(-5305.359 -708.746)" fill="none" stroke="#2f2f2f" stroke-miterlimit="10" stroke-width="4"/>
    <path id="Path_6" data-name="Path 6" d="M5302,762.867s2.683,5.237,8.273,5.237c10.713,0,12.17-6.41,24.819-6.41" transform="translate(-5301.997 -723.604)" fill="none" stroke="#2f2f2f" stroke-miterlimit="10" stroke-width="4"/>
  </g>
</svg>
